<svg viewBox="0 0 512 512" fill="none" xmlns="http://www.w3.org/2000/svg">
<path d="M298.131 22.5599H52.0013C48.8187 22.5599 45.7665 23.8242 43.5161 26.0747C41.2656 28.3251 40.0013 31.3773 40.0013 34.5599V477.39C40.0013 480.573 41.2656 483.625 43.5161 485.875C45.7665 488.126 48.8187 489.39 52.0013 489.39L260.131 489.44C263.314 489.44 266.366 488.176 268.617 485.925C270.867 483.675 272.131 480.623 272.131 477.44L272.191 385.97H290.301C416.011 385.97 512.301 257.65 455.101 125.12C430.641 68.5699 359.711 22.5599 298.131 22.5599ZM290.251 282H272.141V386H144.791L144.001 126.58H297.631C309.165 126.553 320.507 129.528 330.543 135.212C340.579 140.897 348.963 149.094 354.871 159C390.681 219.44 347.631 282 290.251 282Z" fill="#4285f4"/>
</svg>