<svg width="1080" height="982" viewBox="0 0 1080 982" fill="none" xmlns="http://www.w3.org/2000/svg">
    <g clip-path="url(#clip0)">
        <path d="M833.678 399.311V399.311C840.537 399.311 846.098 404.871 846.098 411.731V594.311H833.678V399.311Z" fill="#4285F4" />
        <g filter="url(#filter0_d)">
            <rect x="242.127" y="146.012" width="591.551" height="896.598" rx="54" fill="#303135" />
        </g>
        <path d="M782.945 200.254H296.897C278.672 200.254 263.897 215.029 263.897 233.254V981.554H815.945V233.254C815.945 215.029 801.171 200.254 782.945 200.254Z" fill="black" fill-opacity="0.6" />
        <g filter="url(#filter1_d)">
            <rect x="126.753" y="475.679" width="823.697" height="225.153" rx="12" fill="#3C4043" />
        </g>
        <rect x="462.385" y="169.532" width="151.034" height="11.1877" rx="5.59387" fill="#010101" />
        <rect x="389.092" y="554.177" width="17.4623" height="21.7312" fill="white" />
        <path d="M422.294 557.195L407.517 573.379L396.962 553.325L422.294 557.195Z" fill="white" />
        <g filter="url(#filter2_d)">
            <path
                d="M451.209 579.383C453.811 579.383 456.201 579.724 458.377 580.407C460.553 581.09 462.43 582.092 464.009 583.415C465.587 584.738 466.803 586.359 467.657 588.279C468.51 590.199 468.937 592.375 468.937 594.807C468.937 597.239 468.51 599.415 467.657 601.335C466.803 603.255 465.587 604.876 464.009 606.199C462.43 607.479 460.553 608.482 458.377 609.207C456.201 609.89 453.811 610.231 451.209 610.231H447.177V624.183H435.145V579.383H451.209ZM447.177 599.671H451.465C453.043 599.671 454.323 599.244 455.305 598.391C456.329 597.538 456.841 596.364 456.841 594.871C456.841 593.378 456.329 592.204 455.305 591.351C454.323 590.498 453.043 590.071 451.465 590.071H447.177V599.671ZM473.695 624.183V592.183H485.407V624.183H473.695ZM486.111 583.159C486.111 584.012 485.941 584.844 485.599 585.655C485.258 586.423 484.789 587.106 484.191 587.703C483.594 588.3 482.89 588.77 482.079 589.111C481.311 589.452 480.458 589.623 479.519 589.623C478.623 589.623 477.77 589.452 476.959 589.111C476.191 588.77 475.509 588.3 474.911 587.703C474.314 587.106 473.845 586.423 473.503 585.655C473.162 584.887 472.991 584.055 472.991 583.159C472.991 582.263 473.162 581.431 473.503 580.663C473.845 579.895 474.314 579.212 474.911 578.615C475.509 578.018 476.191 577.548 476.959 577.207C477.77 576.866 478.623 576.695 479.519 576.695C480.458 576.695 481.311 576.866 482.079 577.207C482.89 577.548 483.594 578.018 484.191 578.615C484.789 579.212 485.258 579.916 485.599 580.727C485.941 581.495 486.111 582.306 486.111 583.159ZM507.674 616.247L502.234 624.183H489.37L501.146 608.055L489.818 592.183H503.13L507.994 599.543L512.986 592.183H525.914L514.586 607.799L526.362 624.183H513.114L507.674 616.247ZM536.272 638.647C534.694 638.647 533.371 638.476 532.304 638.135C531.238 637.836 530.406 637.516 529.808 637.175V627.639C531.131 628.236 532.475 628.535 533.84 628.535C535.248 628.535 536.464 628.279 537.488 627.767C538.555 627.298 539.344 626.444 539.856 625.207L540.112 624.567L526.992 592.183H539.344L546.32 611.767L553.296 592.183H565.328L551.696 625.719C549.819 630.284 547.622 633.57 545.104 635.575C542.587 637.623 539.643 638.647 536.272 638.647ZM594.249 613.943C594.249 615.692 593.908 617.25 593.225 618.615C592.543 619.98 591.583 621.154 590.345 622.135C589.108 623.074 587.593 623.799 585.801 624.311C584.052 624.823 582.089 625.079 579.913 625.079C577.097 625.079 574.388 624.695 571.785 623.927C569.225 623.159 566.985 622.092 565.065 620.727L569.673 612.599C571.252 613.58 572.959 614.37 574.793 614.967C576.671 615.564 578.399 615.863 579.977 615.863C581.769 615.863 582.665 615.415 582.665 614.519C582.665 614.05 582.409 613.708 581.897 613.495C581.385 613.282 580.511 613.026 579.273 612.727L577.609 612.343C573.812 611.49 571.039 610.274 569.289 608.695C567.583 607.116 566.729 604.962 566.729 602.231C566.729 600.567 567.049 599.074 567.689 597.751C568.372 596.428 569.311 595.298 570.505 594.359C571.7 593.378 573.129 592.631 574.793 592.119C576.5 591.607 578.399 591.351 580.489 591.351C582.836 591.351 585.097 591.671 587.273 592.311C589.449 592.951 591.668 593.89 593.929 595.127L589.897 603.319C588.233 602.423 586.591 601.719 584.969 601.207C583.348 600.695 581.897 600.439 580.617 600.439C579.764 600.439 579.145 600.546 578.761 600.759C578.42 600.93 578.249 601.25 578.249 601.719C578.249 602.103 578.505 602.402 579.017 602.615C579.572 602.828 580.511 603.106 581.833 603.447L583.561 603.895C587.316 604.876 590.025 606.178 591.689 607.799C593.396 609.378 594.249 611.426 594.249 613.943ZM645.213 601.783C645.213 605.026 644.594 608.076 643.357 610.935C642.119 613.751 640.413 616.204 638.237 618.295C636.103 620.386 633.586 622.05 630.685 623.287C627.826 624.482 624.754 625.079 621.469 625.079C618.183 625.079 615.09 624.482 612.189 623.287C609.33 622.05 606.813 620.386 604.637 618.295C602.503 616.204 600.818 613.751 599.581 610.935C598.343 608.076 597.725 605.026 597.725 601.783C597.725 598.54 598.343 595.511 599.581 592.695C600.818 589.836 602.503 587.362 604.637 585.271C606.813 583.18 609.33 581.538 612.189 580.343C615.09 579.106 618.183 578.487 621.469 578.487C624.754 578.487 627.826 579.106 630.685 580.343C633.586 581.538 636.103 583.18 638.237 585.271C640.413 587.362 642.119 589.836 643.357 592.695C644.594 595.511 645.213 598.54 645.213 601.783ZM632.861 601.783C632.861 600.162 632.562 598.647 631.965 597.239C631.367 595.831 630.557 594.615 629.533 593.591C628.509 592.524 627.293 591.692 625.885 591.095C624.519 590.498 623.047 590.199 621.469 590.199C619.847 590.199 618.333 590.498 616.925 591.095C615.559 591.692 614.365 592.524 613.341 593.591C612.317 594.615 611.506 595.831 610.909 597.239C610.354 598.647 610.077 600.162 610.077 601.783C610.077 603.404 610.354 604.919 610.909 606.327C611.506 607.735 612.317 608.972 613.341 610.039C614.365 611.063 615.559 611.874 616.925 612.471C618.333 613.068 619.847 613.367 621.469 613.367C623.047 613.367 624.519 613.068 625.885 612.471C627.293 611.874 628.509 611.063 629.533 610.039C630.557 608.972 631.367 607.735 631.965 606.327C632.562 604.919 632.861 603.404 632.861 601.783ZM657.695 608.439C658.421 610.103 659.487 611.426 660.895 612.407C662.303 613.346 663.797 613.815 665.375 613.815C666.485 613.815 667.445 613.602 668.255 613.175C669.066 612.706 669.471 612.002 669.471 611.063C669.471 610.423 669.215 609.868 668.703 609.399C668.191 608.887 667.317 608.418 666.079 607.991L660.639 606.071C659.018 605.516 657.525 604.834 656.159 604.023C654.837 603.212 653.685 602.274 652.703 601.207C651.722 600.098 650.954 598.86 650.399 597.495C649.887 596.13 649.631 594.572 649.631 592.823C649.631 590.69 650.015 588.748 650.783 586.999C651.551 585.25 652.618 583.756 653.983 582.519C655.391 581.239 657.055 580.258 658.975 579.575C660.895 578.85 662.986 578.487 665.247 578.487C666.954 578.487 668.618 578.7 670.239 579.127C671.861 579.554 673.375 580.194 674.783 581.047C676.191 581.858 677.471 582.86 678.623 584.055C679.818 585.207 680.799 586.508 681.567 587.959L671.775 594.039C671.135 592.759 670.282 591.692 669.215 590.839C668.149 589.986 666.933 589.559 665.567 589.559C664.458 589.559 663.583 589.794 662.943 590.263C662.303 590.732 661.983 591.372 661.983 592.183C661.983 592.908 662.261 593.463 662.815 593.847C663.37 594.231 664.074 594.594 664.927 594.935L671.071 597.239C674.783 598.604 677.514 600.375 679.263 602.551C681.055 604.684 681.951 607.287 681.951 610.359C681.951 612.706 681.482 614.796 680.543 616.631C679.605 618.466 678.346 620.002 676.767 621.239C675.231 622.476 673.461 623.436 671.455 624.119C669.45 624.759 667.381 625.079 665.247 625.079C663.413 625.079 661.621 624.844 659.871 624.375C658.122 623.906 656.479 623.223 654.943 622.327C653.407 621.431 651.999 620.322 650.719 618.999C649.482 617.676 648.458 616.14 647.647 614.391L657.695 608.439Z"
                fill="white"
            />
        </g>
        <rect x="326.844" y="554.937" width="143.705" height="87.2372" fill="#3C4043" />
        <g filter="url(#filter3_d)">
            <path
                d="M427.996 553.325H380.231C379.614 553.325 379.021 553.57 378.585 554.007C378.148 554.444 377.903 555.036 377.903 555.654V641.591C377.903 642.209 378.148 642.801 378.585 643.238C379.021 643.675 379.614 643.92 380.231 643.92L420.622 643.93C421.24 643.93 421.832 643.684 422.269 643.248C422.705 642.811 422.951 642.219 422.951 641.601L422.962 623.85H426.477C450.873 623.85 469.559 598.948 458.459 573.228C453.712 562.254 439.947 553.325 427.996 553.325ZM426.467 603.673H422.953V623.856H398.239L398.085 573.512H427.899C430.138 573.506 432.339 574.084 434.286 575.187C436.234 576.29 437.861 577.881 439.008 579.803C445.957 591.532 437.603 603.673 426.467 603.673Z"
                fill="#4285F4"
            />
        </g>
    </g>
    <defs>
        <filter id="filter0_d" x="184.127" y="145.012" width="667.551" height="972.598" filterUnits="userSpaceOnUse" color-interpolation-filters="sRGB">
            <feFlood flood-opacity="0" result="BackgroundImageFix" />
            <feColorMatrix in="SourceAlpha" type="matrix" values="0 0 0 0 0 0 0 0 0 0 0 0 0 0 0 0 0 0 127 0" />
            <feOffset dx="-20" dy="37" />
            <feGaussianBlur stdDeviation="19" />
            <feColorMatrix type="matrix" values="0 0 0 0 0 0 0 0 0 0 0 0 0 0 0 0 0 0 0.24 0" />
            <feBlend mode="normal" in2="BackgroundImageFix" result="effect1_dropShadow" />
            <feBlend mode="normal" in="SourceGraphic" in2="effect1_dropShadow" result="shape" />
        </filter>
        <filter id="filter1_d" x="110.753" y="463.679" width="871.697" height="273.153" filterUnits="userSpaceOnUse" color-interpolation-filters="sRGB">
            <feFlood flood-opacity="0" result="BackgroundImageFix" />
            <feColorMatrix in="SourceAlpha" type="matrix" values="0 0 0 0 0 0 0 0 0 0 0 0 0 0 0 0 0 0 127 0" />
            <feMorphology radius="8" operator="dilate" in="SourceAlpha" result="effect1_dropShadow" />
            <feOffset dx="8" dy="12" />
            <feGaussianBlur stdDeviation="8" />
            <feColorMatrix type="matrix" values="0 0 0 0 0 0 0 0 0 0 0 0 0 0 0 0 0 0 0.2 0" />
            <feBlend mode="normal" in2="BackgroundImageFix" result="effect1_dropShadow" />
            <feBlend mode="normal" in="SourceGraphic" in2="effect1_dropShadow" result="shape" />
        </filter>
        <filter id="filter2_d" x="431.145" y="576.695" width="254.807" height="69.952" filterUnits="userSpaceOnUse" color-interpolation-filters="sRGB">
            <feFlood flood-opacity="0" result="BackgroundImageFix" />
            <feColorMatrix in="SourceAlpha" type="matrix" values="0 0 0 0 0 0 0 0 0 0 0 0 0 0 0 0 0 0 127 0" />
            <feOffset dy="4" />
            <feGaussianBlur stdDeviation="2" />
            <feColorMatrix type="matrix" values="0 0 0 0 0 0 0 0 0 0 0 0 0 0 0 0 0 0 0.12 0" />
            <feBlend mode="normal" in2="BackgroundImageFix" result="effect1_dropShadow" />
            <feBlend mode="normal" in="SourceGraphic" in2="effect1_dropShadow" result="shape" />
        </filter>
        <filter id="filter3_d" x="373.903" y="553.325" width="91.8354" height="98.6049" filterUnits="userSpaceOnUse" color-interpolation-filters="sRGB">
            <feFlood flood-opacity="0" result="BackgroundImageFix" />
            <feColorMatrix in="SourceAlpha" type="matrix" values="0 0 0 0 0 0 0 0 0 0 0 0 0 0 0 0 0 0 127 0" />
            <feOffset dy="4" />
            <feGaussianBlur stdDeviation="2" />
            <feColorMatrix type="matrix" values="0 0 0 0 0 0 0 0 0 0 0 0 0 0 0 0 0 0 0.12 0" />
            <feBlend mode="normal" in2="BackgroundImageFix" result="effect1_dropShadow" />
            <feBlend mode="normal" in="SourceGraphic" in2="effect1_dropShadow" result="shape" />
        </filter>
        <clipPath id="clip0">
            <rect width="1080" height="982" fill="white" />
        </clipPath>
    </defs>
</svg>
